<svg width="20" height="20" viewBox="0 0 20 20" fill="none" xmlns="http://www.w3.org/2000/svg">
<path d="M10 1C5.0575 1 1 4.75496 1 9.40609C1 11.8841 2.1775 14.0857 4 15.6193V19L7.3285 17.378C8.1745 17.6265 9.0595 17.8122 10 17.8122C14.9425 17.8122 19 14.0572 19 9.40609C19 4.75496 14.9425 1 10 1ZM10 2.46193C14.1693 2.46193 17.5 5.58022 17.5 9.40609C17.5 13.232 14.1693 16.3503 10 16.3503C9.10375 16.3503 8.248 16.1843 7.4455 15.9161L7.141 15.8247L5.5 16.6244V14.9797L5.21875 14.7509C3.5545 13.4724 2.5 11.5566 2.5 9.40609C2.5 5.58022 5.83075 2.46193 10 2.46193ZM9.15625 7.09917L4.633 11.7591L8.6875 9.56617L10.8438 11.8278L15.3205 7.09844L11.359 9.2694L9.15625 7.09917Z" fill="white"/>
</svg>
