<svg width="24" height="24" viewBox="0 0 24 24" fill="none" xmlns="http://www.w3.org/2000/svg">
<path d="M12.3836 2.41537C11.6073 2.3529 10.8275 2.48024 10.1114 2.78643C9.39534 3.09262 8.76451 3.56845 8.27337 4.17287C7.78223 4.77728 7.44554 5.49212 7.29234 6.25571C7.13914 7.01929 7.17405 7.80869 7.39404 8.55577L2.60964 13.339C2.47457 13.4739 2.39861 13.6569 2.39844 13.8478V17.2798C2.39844 17.4707 2.47429 17.6539 2.60932 17.7889C2.74435 17.9239 2.92748 17.9998 3.11844 17.9998H6.47844C6.66939 17.9998 6.85253 17.9239 6.98756 17.7889C7.12258 17.6539 7.19844 17.4707 7.19844 17.2798V15.5998H9.47844C9.66939 15.5998 9.85253 15.5239 9.98756 15.3889C10.1226 15.2539 10.1984 15.0707 10.1984 14.8798V12.8482L11.0804 11.9662C10.822 11.6496 10.5934 11.3097 10.3976 10.951L9.20964 12.1402C9.07457 12.2751 8.99861 12.4581 8.99844 12.649V14.3998H6.71964C6.52868 14.3998 6.34555 14.4756 6.21052 14.6107C6.07549 14.7457 5.99964 14.9288 5.99964 15.1198V16.7998H3.59964V14.0482L8.78364 8.86417L8.64204 8.50057C8.46185 8.03519 8.38036 7.53743 8.40273 7.03888C8.42511 6.54033 8.55086 6.05187 8.77201 5.60449C8.99316 5.15712 9.30488 4.76059 9.68739 4.44007C10.0699 4.11954 10.5149 3.88202 10.994 3.74257C11.39 3.23497 11.858 2.78737 12.3824 2.41537H12.3836ZM16.1996 7.49977C16.3178 7.49977 16.4349 7.4765 16.5441 7.43127C16.6532 7.38604 16.7525 7.31974 16.836 7.23617C16.9196 7.1526 16.9859 7.05338 17.0311 6.94419C17.0764 6.835 17.0996 6.71796 17.0996 6.59977C17.0996 6.48159 17.0764 6.36455 17.0311 6.25536C16.9859 6.14617 16.9196 6.04695 16.836 5.96338C16.7525 5.87981 16.6532 5.81351 16.5441 5.76828C16.4349 5.72305 16.3178 5.69977 16.1996 5.69977C15.9609 5.69977 15.732 5.7946 15.5632 5.96338C15.3945 6.13216 15.2996 6.36108 15.2996 6.59977C15.2996 6.83847 15.3945 7.06739 15.5632 7.23617C15.732 7.40495 15.9609 7.49977 16.1996 7.49977ZM10.7996 7.79977C10.7997 6.86687 11.0415 5.94989 11.5014 5.13821C11.9612 4.32653 12.6236 3.64784 13.4238 3.16828C14.224 2.68872 15.1348 2.42465 16.0674 2.40181C17 2.37896 17.9227 2.59812 18.7454 3.03793C19.5681 3.47774 20.2629 4.12319 20.762 4.91138C21.261 5.69957 21.5474 6.60361 21.5931 7.53539C21.6389 8.46718 21.4425 9.39492 21.023 10.2282C20.6035 11.0615 19.9753 11.7719 19.1996 12.2902V14.7502L20.1392 15.691C20.2741 15.826 20.3498 16.009 20.3498 16.1998C20.3498 16.3906 20.2741 16.5736 20.1392 16.7086L18.848 17.9998L20.1296 19.2802C20.2012 19.3518 20.2569 19.4378 20.293 19.5324C20.3292 19.6271 20.3449 19.7282 20.3392 19.8294C20.3336 19.9305 20.3066 20.0293 20.2602 20.1193C20.2137 20.2094 20.1488 20.2886 20.0696 20.3518L17.2496 22.6078C17.1219 22.71 16.9632 22.7657 16.7996 22.7657C16.6361 22.7657 16.4773 22.71 16.3496 22.6078L13.4696 20.3038C13.3854 20.2364 13.3175 20.1509 13.2707 20.0537C13.224 19.9565 13.1997 19.85 13.1996 19.7422V12.2902C12.4609 11.7971 11.8553 11.1292 11.4366 10.3459C11.018 9.56256 10.7991 8.68797 10.7996 7.79977ZM16.1996 3.59977C15.2747 3.59936 14.3755 3.90426 13.6416 4.46716C12.9077 5.03006 12.3802 5.81947 12.1408 6.71288C11.9015 7.60628 11.9637 8.55371 12.3179 9.40812C12.6721 10.2625 13.2984 10.9761 14.0996 11.4382C14.1908 11.4908 14.2666 11.5666 14.3193 11.6578C14.3719 11.749 14.3996 11.8525 14.3996 11.9578V19.5118L16.7996 21.4318L18.9008 19.7506L17.66 18.5086C17.5252 18.3736 17.4495 18.1906 17.4495 17.9998C17.4495 17.809 17.5252 17.626 17.66 17.491L18.9512 16.1998L18.2108 15.4594C18.0758 15.3245 17.9998 15.1415 17.9996 14.9506V11.9578C17.9996 11.8525 18.0274 11.749 18.08 11.6578C18.1327 11.5666 18.2084 11.4908 18.2996 11.4382C19.1009 10.9761 19.7272 10.2625 20.0814 9.40812C20.4356 8.55371 20.4978 7.60628 20.2585 6.71288C20.0191 5.81947 19.4915 5.03006 18.7576 4.46716C18.0237 3.90426 17.1246 3.59936 16.1996 3.59977Z" fill="white"/>
</svg>
