<svg width="22" height="28" viewBox="0 0 22 28" fill="none" xmlns="http://www.w3.org/2000/svg">
<path d="M21.3975 3.97754L11.4424 0.584961C11.3223 0.543945 11.1611 0.523438 11 0.523438C10.8389 0.523438 10.6777 0.543945 10.5576 0.584961L0.602539 3.97754C0.359375 4.05957 0.160156 4.34082 0.160156 4.59863V18.7314C0.160156 18.9893 0.327149 19.3291 0.529297 19.4902L10.6279 27.3594C10.7305 27.4385 10.8623 27.4795 10.9971 27.4795C11.1318 27.4795 11.2666 27.4385 11.3662 27.3594L21.4648 19.4902C21.667 19.332 21.834 18.9922 21.834 18.7314V4.59863C21.8398 4.34082 21.6406 4.0625 21.3975 3.97754ZM19.7305 18.1689L11 24.9717L2.26953 18.1689V5.6416L11 2.66504L19.7305 5.6416V18.1689ZM7.8418 12.2803C7.75391 12.1602 7.61328 12.0869 7.46094 12.0869H5.84375C5.65332 12.0869 5.54199 12.3037 5.65332 12.459L9.35644 17.5566C9.40023 17.6166 9.45754 17.6653 9.52372 17.6989C9.5899 17.7325 9.66308 17.7501 9.7373 17.7501C9.81153 17.7501 9.8847 17.7325 9.95088 17.6989C10.0171 17.6653 10.0744 17.6166 10.1182 17.5566L16.3467 8.98145C16.458 8.82617 16.3467 8.60938 16.1562 8.60938H14.5391C14.3896 8.60938 14.2461 8.68262 14.1582 8.80273L9.7373 14.8906L7.8418 12.2803Z" fill="#9978CF"/>
</svg>
