<svg width="20" height="20" viewBox="0 0 20 20" fill="none" xmlns="http://www.w3.org/2000/svg">
<path d="M16.25 11.2501H12.5V9.31135C12.5173 8.4574 12.7678 7.62444 13.2244 6.9026C13.6836 6.13117 13.8496 5.22012 13.6919 4.3363C13.5342 3.45249 13.0633 2.65507 12.3656 2.0901C11.862 1.67949 11.2602 1.40689 10.6194 1.29905C9.97854 1.1912 9.32069 1.25182 8.71036 1.47495C8.10004 1.69807 7.55821 2.07605 7.13805 2.57178C6.71789 3.0675 6.43383 3.66395 6.31375 4.3026C6.14151 5.20007 6.30807 6.12953 6.78125 6.91135C7.22989 7.60929 7.4785 8.41692 7.5 9.24635V11.2501H3.75C3.41858 11.2504 3.10083 11.3822 2.86648 11.6166C2.63213 11.8509 2.50033 12.1687 2.5 12.5001V15.0001C2.50033 15.3315 2.63213 15.6493 2.86648 15.8836C3.10083 16.118 3.41858 16.2498 3.75 16.2501V17.5001C3.75033 17.8315 3.88213 18.1493 4.11648 18.3836C4.35083 18.618 4.66858 18.7498 5 18.7501H15C15.3314 18.7498 15.6492 18.618 15.8835 18.3836C16.1179 18.1493 16.2497 17.8315 16.25 17.5001V16.2501C16.5814 16.2498 16.8992 16.118 17.1335 15.8836C17.3679 15.6493 17.4997 15.3315 17.5 15.0001V12.5001C17.4997 12.1687 17.3679 11.8509 17.1335 11.6166C16.8992 11.3822 16.5814 11.2504 16.25 11.2501ZM7.54375 4.5276C7.61069 4.16854 7.75549 3.8285 7.96797 3.53142C8.18045 3.23434 8.45545 2.98742 8.77361 2.80804C9.09177 2.62867 9.44538 2.52118 9.80955 2.49315C10.1737 2.46512 10.5396 2.51723 10.8815 2.6458C11.2233 2.77438 11.5329 2.9763 11.7883 3.23737C12.0438 3.49844 12.2389 3.8123 12.36 4.15689C12.4811 4.50148 12.5252 4.86842 12.4893 5.23189C12.4533 5.59536 12.3381 5.94654 12.1519 6.26072C11.6871 7.01794 11.3934 7.86753 11.2913 8.7501L10.0206 9.3751L8.75 10.0001L8.7125 8.7501C8.6141 7.86853 8.3203 7.02001 7.8525 6.26635C7.53799 5.74493 7.42798 5.12542 7.54375 4.5276ZM11.25 10.0001V11.2501H8.75V10.0001L10.0206 9.3751L11.2913 8.7501L11.25 10.0001ZM15 17.5001H5V16.2501H15V17.5001ZM3.75 15.0001V12.5001H16.25V15.0001H3.75Z" fill="white"/>
</svg>
