<svg width="16" height="16" viewBox="0 0 16 16" fill="none" xmlns="http://www.w3.org/2000/svg">
<path d="M7.60888 0.00925298C3.34886 0.210451 -0.0128861 3.72954 3.71346e-05 7.95991C0.00397198 9.24837 0.317564 10.4645 0.870757 11.5391L0.0214088 15.6286C-0.0245364 15.8498 0.176604 16.0435 0.398151 15.9915L4.43805 15.0421C5.47596 15.5549 6.64175 15.8511 7.87556 15.8698C12.2297 15.9357 15.8603 12.5064 15.996 8.18904C16.1415 3.56114 12.2908 -0.21192 7.60888 0.00925298ZM12.4293 12.3289C11.2462 13.5025 9.67317 14.1488 8.00001 14.1488C7.02031 14.1488 6.08235 13.9307 5.21209 13.5007L4.64949 13.2227L2.17261 13.8048L2.69398 11.2944L2.41681 10.756C1.96503 9.87837 1.73596 8.92936 1.73596 7.93534C1.73596 6.27567 2.38753 4.71537 3.57064 3.54178C4.74319 2.37871 6.34189 1.72189 8.00012 1.72189C9.67328 1.72192 11.2463 2.36822 12.4294 3.54174C13.6125 4.71529 14.2641 6.27559 14.2641 7.93523C14.2641 9.58009 13.6019 11.1659 12.4293 12.3289Z" fill="#7AD06D"/>
<path d="M11.8841 9.65627L10.3345 9.21492C10.1307 9.15691 9.91134 9.21423 9.7629 9.36427L9.38396 9.74723C9.22417 9.9087 8.98172 9.96059 8.77024 9.87572C8.0372 9.58146 6.4952 8.22152 6.10141 7.54128C5.9878 7.34505 6.00659 7.09974 6.14608 6.92069L6.47692 6.49614C6.60653 6.3298 6.63389 6.10641 6.54817 5.91413L5.89622 4.45152C5.74006 4.1012 5.28875 3.99922 4.9939 4.24657C4.56142 4.6094 4.04827 5.16076 3.98589 5.77159C3.8759 6.84852 4.34153 8.2061 6.10229 9.83619C8.13646 11.7194 9.76541 11.9682 10.826 11.7134C11.4276 11.5688 11.9083 10.9894 12.2117 10.515C12.4186 10.1916 12.2552 9.762 11.8841 9.65627Z" fill="#7AD06D"/>
</svg>
