<svg width="100" height="100" viewBox="0 0 100 100" fill="none" xmlns="http://www.w3.org/2000/svg">
<rect width="100" height="100" rx="20" fill="#F7931A"/>
<path d="M64.628 46.2741C65.2251 42.2818 62.1856 40.1358 58.0293 38.7041L59.3777 33.2962L56.0856 32.4759L54.7731 37.7415C53.9076 37.5256 53.0189 37.3222 52.1355 37.1206L53.4576 31.8202L50.1677 31L48.8186 36.4062C48.1024 36.2431 47.399 36.082 46.7166 35.9122L46.7204 35.8952L42.1806 34.7615L41.3049 38.2776C41.3049 38.2776 43.7473 38.8374 43.6958 38.8719C45.0289 39.2046 45.27 40.0871 45.2299 40.7865L43.6941 46.9475C43.7859 46.9708 43.9049 47.0045 44.0363 47.0573C43.9265 47.0301 43.8096 47.0003 43.6883 46.9712L41.5356 55.6019C41.3727 56.0069 40.9591 56.6147 40.0271 56.3839C40.0601 56.4317 37.6344 55.7868 37.6344 55.7868L36 59.5551L40.284 60.623C41.081 60.8229 41.862 61.032 42.6311 61.2286L41.2688 66.6986L44.557 67.5189L45.9061 62.107C46.8044 62.3509 47.6761 62.5758 48.5296 62.7878L47.1851 68.1743L50.4772 68.9945L51.8393 63.5348C57.4529 64.5972 61.6738 64.1689 63.4505 59.0914C64.8821 55.0034 63.3792 52.6455 60.426 51.1079C62.577 50.6118 64.1972 49.1971 64.6292 46.2746L64.6281 46.2738L64.628 46.2741ZM57.1065 56.8212C56.0892 60.9091 49.2063 58.6993 46.9748 58.1452L48.7825 50.8983C51.0139 51.4554 58.1698 52.5578 57.1067 56.8212H57.1065ZM58.1246 46.2149C57.1966 49.9333 51.4679 48.0442 49.6096 47.581L51.2485 41.0085C53.1069 41.4718 59.0914 42.3363 58.1249 46.2149H58.1246Z" fill="white"/>
</svg>
