<svg width="71" height="71" viewBox="0 0 71 71" fill="none" xmlns="http://www.w3.org/2000/svg">
<rect width="71" height="71" rx="20" fill="#50AF95"/>
<path fill-rule="evenodd" clip-rule="evenodd" d="M38.052 36.0515C37.8815 36.0644 37.0008 36.1177 35.0362 36.1177C33.4737 36.1177 32.3642 36.0702 31.975 36.0515C25.9364 35.7823 21.429 34.7172 21.429 33.4419C21.429 32.1666 25.9364 31.1029 31.975 30.8294V34.9906C32.3699 35.0194 33.5006 35.0871 35.0632 35.0871C36.9383 35.0871 37.8773 35.0079 38.0463 34.9921V30.8323C44.0722 31.1044 48.5695 32.1695 48.5695 33.4419C48.5695 34.7143 44.0736 35.7794 38.0463 36.05L38.052 36.0515ZM38.052 30.4019V26.6783H46.4615V21H23.5655V26.6783H31.9736V30.4005C25.1395 30.7186 20 32.0903 20 33.7341C20 35.3778 25.1395 36.7481 31.9736 37.0676V49H38.0506V37.0633C44.8691 36.7452 50 35.375 50 33.7326C50 32.0903 44.8733 30.72 38.0506 30.4005L38.052 30.4019Z" fill="white"/>
</svg>
