<svg width="21" height="18" viewBox="0 0 21 18" fill="none" xmlns="http://www.w3.org/2000/svg">
<g clip-path="url(#clip0_2317_18961)">
<path fill-rule="evenodd" clip-rule="evenodd" d="M3.7884 0.0884055L0.0155112 8.01336C0.00115426 8.04283 -0.00339535 8.07613 0.00252767 8.10838C0.00845069 8.14062 0.0245356 8.17013 0.0484302 8.19258L10.2381 17.9567C10.267 17.9845 10.3056 18 10.3457 18C10.3858 18 10.4243 17.9845 10.4533 17.9567L20.6429 8.19319C20.6668 8.17074 20.6829 8.14123 20.6888 8.10899C20.6948 8.07674 20.6902 8.04344 20.6759 8.01397L16.903 0.0890151C16.8908 0.0623997 16.8712 0.0398532 16.8466 0.02407C16.8219 0.00828685 16.7932 -6.52887e-05 16.764 1.17974e-05H3.92861C3.8992 -0.000354069 3.87031 0.00779688 3.84543 0.0234814C3.82056 0.0391659 3.80075 0.0617139 3.7884 0.0884055Z" fill="#50AF95"/>
<path fill-rule="evenodd" clip-rule="evenodd" d="M11.6551 8.8271C11.582 8.83259 11.204 8.85514 10.3609 8.85514C9.69037 8.85514 9.21426 8.83503 9.04723 8.8271C6.45577 8.7131 4.52147 8.26199 4.52147 7.72188C4.52147 7.18176 6.45577 6.73126 9.04723 6.61543V8.37782C9.2167 8.39001 9.70195 8.41866 10.3725 8.41866C11.1772 8.41866 11.5802 8.38513 11.6527 8.37843V6.61665C14.2387 6.73187 16.1687 7.18298 16.1687 7.72188C16.1687 8.26077 14.2393 8.71188 11.6527 8.82649L11.6551 8.8271ZM11.6551 6.43438V4.85731H15.264V2.45239H5.43833V4.85731H9.04662V6.43377C6.11378 6.56849 3.9082 7.14945 3.9082 7.84563C3.9082 8.5418 6.11378 9.12215 9.04662 9.25749V14.3112H11.6545V9.25566C14.5807 9.12093 16.7826 8.54058 16.7826 7.84502C16.7826 7.14945 14.5825 6.5691 11.6545 6.43377L11.6551 6.43438Z" fill="white"/>
</g>
<defs>
<clipPath id="clip0_2317_18961">
<rect width="20.692" height="18" fill="white"/>
</clipPath>
</defs>
</svg>
